<?xml version="1.0" encoding="UTF-8"?>
<svg width="27px" height="26px" viewBox="0 0 27 26" version="1.1" xmlns="http://www.w3.org/2000/svg" xmlns:xlink="http://www.w3.org/1999/xlink">
    <!-- Generator: Sketch 64 (93537) - https://sketch.com -->
    <title>github-logo</title>
    <desc>Created with Sketch.</desc>
    <g id="Symbols" stroke="none" stroke-width="1" fill="none" fill-rule="evenodd">
        <g id="Github-Sign-In" transform="translate(-10.000000, -8.000000)" fill="#FFFFFF" fill-rule="nonzero">
            <g id="Group-Copy-3">
                <g id="github-logo" transform="translate(10.000000, 8.000000)">
                    <path d="M24.54792,6.57438 C23.37144,4.55862 21.77562,2.96274 19.76004,1.78638 C17.74416,0.60996 15.54342,0.0219 13.15626,0.0219 C10.7694,0.0219 8.56794,0.61014 6.55248,1.78638 C4.53672,2.96268 2.94096,4.55862 1.76448,6.57438 C0.58818,8.59008 0,10.79124 0,13.1778 C0,16.0446 0.8364,18.6225 2.50962,20.91216 C4.18266,23.202 6.34398,24.78648 8.9934,25.66578 C9.3018,25.72302 9.5301,25.68276 9.67854,25.54602 C9.82704,25.4091 9.9012,25.23762 9.9012,25.0323 C9.9012,24.99804 9.89826,24.68982 9.89256,24.10728 C9.88668,23.52474 9.88392,23.01654 9.88392,22.58292 L9.4899,22.65108 C9.23868,22.6971 8.92176,22.7166 8.53914,22.71108 C8.1567,22.70574 7.75968,22.66566 7.34862,22.59114 C6.93738,22.51728 6.55488,22.34598 6.20082,22.0776 C5.84694,21.80922 5.59572,21.45792 5.44722,21.02424 L5.27592,20.63004 C5.16174,20.3676 4.98198,20.07606 4.7364,19.7565 C4.49082,19.43664 4.24248,19.2198 3.99126,19.10562 L3.87132,19.01976 C3.7914,18.9627 3.71724,18.89388 3.64866,18.81402 C3.58014,18.73416 3.52884,18.65424 3.49458,18.5742 C3.46026,18.4941 3.4887,18.4284 3.5802,18.37686 C3.6717,18.32532 3.83706,18.3003 4.077,18.3003 L4.41948,18.35148 C4.6479,18.39726 4.93044,18.534 5.26746,18.76254 C5.6043,18.9909 5.8812,19.28778 6.09822,19.65306 C6.36102,20.12142 6.67764,20.4783 7.04898,20.72388 C7.42002,20.96946 7.79412,21.09204 8.17092,21.09204 C8.54772,21.09204 8.87316,21.06348 9.14736,21.00666 C9.42126,20.94954 9.67824,20.86368 9.91818,20.74956 C10.02096,19.98408 10.3008,19.39602 10.75746,18.98496 C10.10658,18.91656 9.5214,18.81354 9.00162,18.67656 C8.48214,18.5394 7.94532,18.3168 7.39152,18.00816 C6.83742,17.69994 6.37776,17.3172 6.01242,16.8606 C5.64702,16.40376 5.34714,15.804 5.1132,15.06186 C4.87914,14.31942 4.76208,13.46298 4.76208,12.4923 C4.76208,11.1102 5.21328,9.93408 6.1155,8.96328 C5.69286,7.9242 5.73276,6.75936 6.23532,5.46888 C6.56652,5.36598 7.05768,5.4432 7.70856,5.70006 C8.35956,5.95704 8.8362,6.17718 9.13896,6.3597 C9.44172,6.54216 9.6843,6.69678 9.86706,6.82218 C10.92936,6.52536 12.02562,6.37692 13.15614,6.37692 C14.28666,6.37692 15.38316,6.52536 16.44552,6.82218 L17.09646,6.41124 C17.5416,6.13704 18.06726,5.88576 18.67218,5.65734 C19.27746,5.42904 19.7403,5.36616 20.06022,5.46906 C20.57394,6.7596 20.61972,7.92438 20.19696,8.96346 C21.09912,9.93426 21.5505,11.11068 21.5505,12.49248 C21.5505,13.46316 21.43302,14.3223 21.19932,15.07044 C20.96532,15.8187 20.66286,16.41786 20.29182,16.86918 C19.92036,17.32044 19.45776,17.70018 18.90396,18.00834 C18.35004,18.31674 17.81304,18.53934 17.29356,18.6765 C16.77384,18.81366 16.18866,18.91674 15.53778,18.98526 C16.13142,19.49898 16.4283,20.30988 16.4283,21.4176 L16.4283,25.03182 C16.4283,25.23714 16.4997,25.40856 16.64262,25.54554 C16.78536,25.68228 17.01078,25.72254 17.31918,25.66524 C19.96896,24.78606 22.13028,23.20152 23.80326,20.91168 C25.47606,18.62202 26.31276,16.04412 26.31276,13.17732 C26.31216,10.79106 25.72368,8.59008 24.54792,6.57438 Z" id="Path"></path>
                </g>
            </g>
        </g>
    </g>
</svg>